<?xml version="1.0" encoding="UTF-8" standalone="no"?>
<svg
   version="1.1"
   id="svg2"
   width="3105.3333"
   height="2710.6667"
   viewBox="0 0 3105.3333 2710.6667"
   sodipodi:docname="THEDESIGNGROUP_LOGOS-01.eps"
   xmlns:inkscape="http://www.inkscape.org/namespaces/inkscape"
   xmlns:sodipodi="http://sodipodi.sourceforge.net/DTD/sodipodi-0.dtd"
   xmlns="http://www.w3.org/2000/svg"
   xmlns:svg="http://www.w3.org/2000/svg">
  <defs
     id="defs6" />
  <g
     id="g8"
     inkscape:groupmode="layer"
     inkscape:label="ink_ext_XXXXXX"
     transform="matrix(1.3333333,0,0,-1.3333333,0,2710.6667)">
    <g
       id="g10"
       transform="scale(0.1)">
      <path
         d="m 15051.8,10987.7 c -679.4,-948.6 -1793.6,-1068.6 -2798.4,-1588.2 -614.3,-317.6 -1228.5,-698.8 -1569.8,-1207 -341.3,-508.2 -1023.8,-317.7 -1228.56,-190.6 -204.76,127.1 -502.76,482.8 -769.38,838.3 -242.93,323.9 -366.67,878.1 -390.92,1131.1 -53.46,557.6 0,952.9 68.25,1334 68.25,381.2 327.82,1101.8 430.14,1410.1 159.15,479.7 300.54,777.9 386.15,1187.1 152.47,728.9 132.21,1189.7 189.25,1929.8 34.59,448.8 0.8,1016.3 154.76,1444.6 110.06,307.3 170.64,478.8 341.27,698.8 92.26,119 221.64,416.1 614.24,444.7 251,18.3 428.7,-70.6 606.5,-70.6 266.6,0 622.1,-120 963.4,-374.1 341.2,-254.1 682.5,-635.3 955.5,-1270.5 273,-635.3 682.5,-1270.6 887.3,-1588.2 204.8,-317.7 682.5,-825.9 819,-1016.5 324.3,-452.6 718.6,-801.9 753.5,-1386 33.1,-552.2 -84.5,-1269.3 -412.2,-1726.8 z m 942.5,2363.2 c -3.1,16.7 -6.3,33.3 -9.5,49.8 -145.6,739.1 -503.5,1772.6 -1001.3,2341.5 -477.7,546 -750.7,1774.6 -819,2184.1 -68.2,409.5 -204.8,887.3 -341.4,1092.2 -695.3,1042 -2549.9,1532.7 -3655.1,899.6 -573.49,-328.5 -968.27,-902.3 -1190.73,-1514 -273,-750.8 -341.26,-2115.8 -273.02,-2798.4 105.64,-1056.9 -442.61,-1909 -887.29,-2798.4 -136.5,-273 -409.51,-955.5 -546.02,-1501.6 -136.51,-546 -168.2,-1563.2 -136.51,-1842.8 40.35,-356 341.27,-1228.5 477.78,-1501.6 136.5,-273 546.02,-1092 1296.8,-1638 750.79,-546.1 1296.79,-682.6 1979.39,-682.6 682.5,0 1160.3,750.8 1296.8,955.6 136.5,204.7 341.2,477.7 477.7,614.3 136.5,136.5 858.5,906 955.6,1023.8 133,161.5 666.3,694.7 1092,1023.8 314.9,243.3 682.6,819 1024,1501.8 385,770.5 416.1,1754.2 259.8,2590.9"
         style="fill:#100f0d;fill-opacity:1;fill-rule:nonzero;stroke:none"
         id="path12" />
      <path
         d="m 1413.38,1519.5 c -10.49,0 -60.7,0.2 -150.59,0.5 -89.91,0.4 -213.21,0.6 -369.927,0.6 0,-143.5 -0.359,-264.7 -1.047,-363.7 -0.703,-99 -1.05,-212.502 -1.05,-340.498 0,-123.203 0.347,-248.203 1.05,-375.203 0.688,-126.996 1.047,-211.398 1.047,-253.398 H 808.91 c 0,42 0.352,127.601 1.051,257.101 0.687,129.399 1.047,256 1.047,379.899 0,121.699 -0.36,230.899 -1.047,327.399 -0.699,96.6 -1.051,219.3 -1.051,368.4 -139.222,0 -258.519,-0.2 -357.855,-0.6 -99.344,-0.3 -153.215,-0.5 -161.61,-0.5 v 70.3 c 67.16,0 149.016,-0.2 245.563,-0.5 96.551,-0.4 199.394,-0.5 308.535,-0.5 158.807,0 291.217,0.1 397.197,0.5 106.01,0.3 163.54,0.5 172.64,0.5 v -70.3"
         style="fill:#100f0d;fill-opacity:1;fill-rule:nonzero;stroke:none"
         id="path14" />
      <path
         d="m 3013.51,187.801 h -83.96 c 0,28 0.35,87.398 1.05,178.398 0.69,90.903 1.05,262.703 1.05,515.203 -15.39,0 -81.5,0.2 -198.34,0.598 -116.85,0.301 -203.59,0.5 -260.26,0.5 -83.26,0 -182.08,-0.199 -296.46,-0.5 -114.39,-0.398 -177.19,-0.598 -188.37,-0.598 0,-130.101 0.35,-268.601 1.05,-415.5 0.68,-147 1.05,-239.601 1.05,-278.101 h -83.96 c 0,28.699 0.35,101.199 1.05,217.699 0.69,116.5 1.05,300.699 1.05,552.602 0,78.998 -0.36,174.998 -1.05,287.998 -0.7,113 -1.05,228.6 -1.05,346.9 h 83.96 c 0,-75.6 -0.37,-169.2 -1.05,-280.8 -0.7,-111.6 -1.05,-231.7 -1.05,-360.399 10.49,0 66.46,-0.199 167.9,-0.602 101.44,-0.297 207.79,-0.5 319.03,-0.5 74.86,0 165.45,0.203 271.8,0.5 106.34,0.403 167.91,0.602 184.7,0.602 0,120.999 -0.36,240.999 -1.05,359.899 -0.7,118.9 -1.05,212.7 -1.05,281.3 h 83.96 c 0,-167.9 -0.36,-303.3 -1.05,-406.2 -0.7,-102.8 -1.05,-188.198 -1.05,-255.999 0,-145.5 0.35,-294.899 1.05,-448.102 0.69,-153.199 1.05,-251.5 1.05,-294.898"
         style="fill:#100f0d;fill-opacity:1;fill-rule:nonzero;stroke:none"
         id="path16" />
      <path
         d="m 4540.16,189.902 c -35.68,0 -105.64,0.098 -209.88,0.5 -104.26,0.399 -173.52,0.5 -207.79,0.5 -67.16,0 -139.22,-0.101 -216.18,-0.5 -76.97,-0.402 -134.33,-0.5 -172.11,-0.5 0,25.899 0.35,90.2 1.05,193.098 0.69,102.801 1.05,267.602 1.05,494.199 0,88.903 -0.36,196.301 -1.05,322.201 -0.7,126 -1.05,256.1 -1.05,390.4 46.87,0 104.25,-0.2 172.11,-0.5 67.85,-0.4 136.42,-0.5 205.69,-0.5 54.57,0 128.71,0.1 222.47,0.5 93.75,0.3 157.77,0.5 192.05,0.5 v -68.2 c -36.38,0 -106.87,0.2 -211.47,0.5 -104.59,0.4 -174.37,0.6 -209.35,0.6 -66.48,0 -124.19,0 -173.16,0 -48.97,0 -87.1,0 -114.38,0 0,-68.6 -0.36,-152.6 -1.05,-251.9 -0.7,-99.4 -1.05,-206.7 -1.05,-322.198 41.28,0 93.22,-0.2 155.84,-0.5 62.61,-0.403 106.15,-0.5 130.65,-0.5 59.46,0 136.25,0.097 230.36,0.5 94.08,0.3 158.62,0.5 193.61,0.5 v -68.2 c -31.48,0 -97.07,0.2 -196.77,0.5 -99.69,0.399 -175.43,0.5 -227.2,0.5 -23.09,0 -66.47,-0.101 -130.13,-0.5 -63.66,-0.3 -115.8,-0.5 -156.36,-0.5 0,-54.601 0.35,-158.8 1.05,-312.703 0.69,-153.898 1.05,-257.5 1.05,-310.699 37.78,0 88.84,0 153.21,0 64.37,0 130.48,0 198.34,0 55.26,0 122.79,0.199 202.54,0.602 79.76,0.3 135.73,0.5 167.91,0.5 v -68.2"
         style="fill:#100f0d;fill-opacity:1;fill-rule:nonzero;stroke:none"
         id="path18" />
      <path
         d="m 6961.76,882.5 c 0,106.301 -21.17,201.8 -63.5,286.5 -42.34,84.6 -110.05,156.7 -203.07,216.2 -76.28,48.3 -161.59,83.9 -256.06,107 -94.45,23.1 -202.53,34.6 -324.26,34.6 -11.2,0 -24.51,0 -39.91,0 -15.39,0 -26.22,0 -32.52,0 0,-56.6 -0.36,-135 -1.06,-235 -0.67,-100.1 -1.04,-202.6 -1.04,-307.499 0,-180.5 0.19,-326.399 0.55,-437.598 0.31,-111.301 0.85,-210.301 1.55,-297.004 11.9,0 24.13,0 36.72,0 12.6,0 24.51,0 35.71,0 113.33,0 216.7,9.602 310.08,28.801 93.39,19.301 176.13,51.301 248.21,96.102 96.55,60.097 168.77,133.398 216.7,219.796 47.89,86.403 71.9,182.5 71.9,288.102 z m 83.96,0 c 0,-116.098 -26.95,-221.301 -80.84,-315.301 C 6911.03,473 6836.15,394.902 6740.32,332.602 6657.05,280.801 6569.44,242.902 6477.45,218.699 6385.41,194.602 6278.21,182.5 6155.78,182.5 c -29.38,0 -64.88,0.402 -106.5,1.102 -41.66,0.699 -71.9,1.398 -90.79,2.097 0,32.203 0.34,105.301 1.06,219.301 0.68,114 1.04,275.301 1.04,483.801 0,132.199 -0.36,265.199 -1.04,398.799 -0.72,133.6 -1.06,235.4 -1.06,305.4 16.79,0.6 40.42,1 70.84,1 30.42,0 59.63,0 87.61,0 136.45,0 258.52,-13.5 366.26,-40.4 107.72,-26.9 200.79,-66.6 279.15,-119.1 95.15,-63 166.15,-141.1 213.04,-234.6 46.86,-93.3 70.33,-199.2 70.33,-317.4"
         style="fill:#100f0d;fill-opacity:1;fill-rule:nonzero;stroke:none"
         id="path20" />
      <path
         d="m 8444.34,189.902 c -35.7,0 -105.66,0.098 -209.88,0.5 -104.27,0.399 -173.53,0.5 -207.81,0.5 -67.16,0 -139.22,-0.101 -216.16,-0.5 -76.98,-0.402 -134.33,-0.5 -172.11,-0.5 0,25.899 0.34,90.2 1.04,193.098 0.7,102.801 1.04,267.602 1.04,494.199 0,88.903 -0.34,196.301 -1.04,322.201 -0.7,126 -1.04,256.1 -1.04,390.4 46.86,0 104.22,-0.2 172.11,-0.5 67.84,-0.4 136.4,-0.5 205.69,-0.5 54.57,0 128.71,0.1 222.48,0.5 93.72,0.3 157.75,0.5 192.03,0.5 v -68.2 c -36.38,0 -106.88,0.2 -211.47,0.5 -104.58,0.4 -174.38,0.6 -209.36,0.6 -66.47,0 -124.17,0 -173.15,0 -48.97,0 -87.11,0 -114.37,0 0,-68.6 -0.36,-152.6 -1.06,-251.9 -0.7,-99.4 -1.06,-206.7 -1.06,-322.198 41.27,0 93.23,-0.2 155.85,-0.5 62.61,-0.403 106.17,-0.5 130.65,-0.5 59.47,0 136.25,0.097 230.36,0.5 94.08,0.3 158.63,0.5 193.61,0.5 v -68.2 c -31.48,0 -97.07,0.2 -196.77,0.5 -99.69,0.399 -175.43,0.5 -227.2,0.5 -23.09,0 -66.46,-0.101 -130.13,-0.5 -63.66,-0.3 -115.8,-0.5 -156.37,-0.5 0,-54.601 0.36,-158.8 1.06,-312.703 0.7,-153.898 1.06,-257.5 1.06,-310.699 37.78,0 88.83,0 153.19,0 64.37,0 130.49,0 198.35,0 55.27,0 122.8,0.199 202.56,0.602 79.75,0.3 135.7,0.5 167.9,0.5 v -68.2"
         style="fill:#100f0d;fill-opacity:1;fill-rule:nonzero;stroke:none"
         id="path22" />
      <path
         d="m 9721.24,551.898 c 0,-71.996 -16.28,-131.496 -48.8,-178.398 -32.54,-46.898 -76.44,-86.398 -131.71,-118.598 -53.17,-30.699 -112.11,-52.8 -176.82,-66.101 -64.72,-13.301 -130.67,-19.899 -197.83,-19.899 -41.98,0 -84.29,1.2 -126.97,3.7 -42.68,2.398 -69.62,4.296 -80.8,5.699 l -4.19,74.5 c 11.17,-1.399 35.83,-4 73.98,-7.801 38.11,-3.898 85.87,-5.797 143.24,-5.797 62.96,0 121.37,5.598 175.24,16.699 53.87,11.2 101.81,28.598 143.78,52.297 49.68,28.602 86.93,62.301 111.76,101.004 24.83,38.699 37.26,86.199 37.26,142.695 0,47.602 -14.69,95.504 -44.07,143.801 -29.39,48.301 -87.82,94.801 -175.25,139.602 -20.99,11.199 -50.37,24.398 -88.15,39.898 -37.78,15.301 -66.82,27.903 -87.11,37.703 -87.46,42 -152.7,88.398 -195.72,139.098 -43.03,50.7 -64.54,113.5 -64.54,188.4 0,59.4 13.29,111.2 39.88,155.3 26.58,44 61.56,81.5 104.94,112.3 44.08,31.4 97.25,56.1 159.51,73.9 62.27,17.9 125.57,26.8 189.96,26.8 40.55,0 81.67,-1.2 123.29,-3.7 41.62,-2.4 65.25,-4 70.84,-4.7 l 6.3,-74.5 c -12.59,2.1 -37.78,4.7 -75.56,7.9 -37.78,3.1 -79.76,4.7 -125.93,4.7 -50.37,0 -101.96,-6.8 -154.8,-20.4 -52.83,-13.6 -100.92,-35.4 -144.3,-65.4 -28.68,-20.2 -54.57,-48.1 -77.63,-83.6 -23.11,-35.6 -34.65,-78.4 -34.65,-128.6 0,-51.1 14.18,-96.8 42.5,-137 28.35,-40.2 84.13,-80.6 167.39,-121.201 21.69,-10.496 49.31,-22.699 82.89,-36.699 33.58,-14 64.37,-27.699 92.35,-41 89.55,-43.398 156.9,-95.5 202.03,-156.301 45.12,-60.898 67.69,-126.301 67.69,-196.301"
         style="fill:#100f0d;fill-opacity:1;fill-rule:nonzero;stroke:none"
         id="path24" />
      <path
         d="m 10409.4,187.801 h -84 c 0,42 0.4,116.801 1.1,224.601 0.7,107.7 1,262.297 1,463.797 0,79.801 -0.3,184.301 -1,313.801 -0.7,129.4 -1.1,263.7 -1.1,403 h 84 c 0,-100.1 -0.4,-216.4 -1.1,-349 -0.7,-132.6 -1,-240.8 -1,-324.797 0,-212.703 0.3,-377.203 1,-493.703 0.7,-116.5 1.1,-195.699 1.1,-237.699"
         style="fill:#100f0d;fill-opacity:1;fill-rule:nonzero;stroke:none"
         id="path26" />
      <path
         d="m 12073.5,909.801 c -1.4,-50.403 -2.1,-109.301 -2.1,-176.801 0,-67.598 0,-123.398 0,-167.398 0,-70.7 0.4,-149.602 1.1,-236.7 0.7,-87.101 1,-135.5 1,-145.3 -8.4,-1.403 -29,-3.2 -61.9,-5.301 -32.9,-2.102 -58.4,-3.102 -76.6,-3.102 -151.1,0 -290.7,18 -418.7,54.004 -128.1,36.098 -235.1,98.098 -321.2,186.297 -52.4,53.898 -95.4,121.398 -129,202.5 -33.6,81.203 -50.4,173.5 -50.4,277.102 0,127.298 31.8,241.198 95.5,341.598 63.7,100.4 149,181.3 256.1,242.9 72.7,42 158.9,73.7 258.7,95 99.6,21.3 200.9,32 303.7,32 15.4,0 30,-0.2 43.6,-0.5 13.7,-0.4 26.1,-0.5 37.3,-0.5 l 4.2,-68.3 c -2.8,0 -13.7,0.2 -32.6,0.6 -18.9,0.3 -33.5,0.5 -44.1,0.5 -109.8,0 -209,-10.3 -297.5,-31 -88.5,-20.6 -167.7,-50.9 -237.6,-90.7 -80.5,-45.5 -151.2,-113.2 -212,-203.1 -60.9,-89.9 -91.3,-196.8 -91.3,-320.6 0,-118.199 26.7,-225.301 80.2,-321.102 53.6,-95.898 123,-167.199 208.3,-214.097 70.7,-38.5 152.9,-67.699 246.7,-87.602 93.7,-20 212.7,-29.898 356.8,-29.898 0,11.101 -0.2,78.5 -0.5,202 -0.4,123.398 -0.9,279.301 -1.6,467.5 h 83.9"
         style="fill:#100f0d;fill-opacity:1;fill-rule:nonzero;stroke:none"
         id="path28" />
      <path
         d="m 13874.1,1593 c 0,-109.9 -0.3,-235.5 -1,-376.8 -0.7,-141.3 -1.1,-243.098 -1.1,-305.399 0,-198.699 0.4,-361.5 1.1,-488.5 0.7,-127 1,-195 1,-204.102 l -76.6,-36.699 c -206.6,280.398 -412.4,559.5 -617.2,837.1 -204.9,277.6 -321,433.9 -348.3,468.9 l -2.1,-1.1 c 0,-187.4 0.5,-440.2 1.6,-758.4 1,-318.199 1.6,-498.301 1.6,-540.199 h -84 c 0,17.5 0.4,79.699 1.1,186.801 0.7,107 1,256 1,447 0,76.3 -0.3,181.898 -1,316.998 -0.7,135 -1.1,273.1 -1.1,414.5 l 99.5,47.2 c 32.9,-44.8 156.6,-212.4 371,-502.7 214.3,-290.401 404.5,-545.498 570.6,-765.198 l 2,1.098 c 0,107.699 -0.8,313.801 -2.6,618.203 -1.7,304.397 -2.6,518.097 -2.6,641.297 h 87.1"
         style="fill:#100f0d;fill-opacity:1;fill-rule:nonzero;stroke:none"
         id="path30" />
      <path
         d="m 16330.3,909.801 c -1.4,-50.403 -2.1,-109.301 -2.1,-176.801 0,-67.598 0,-123.398 0,-167.398 0,-70.7 0.3,-149.602 1,-236.7 0.7,-87.101 1.1,-135.5 1.1,-145.3 -8.4,-1.403 -29,-3.2 -61.9,-5.301 -32.9,-2.102 -58.4,-3.102 -76.6,-3.102 -151.1,0 -290.7,18 -418.7,54.004 -128.1,36.098 -235.1,98.098 -321.2,186.297 -52.4,53.898 -95.5,121.398 -129.1,202.5 -33.5,81.203 -50.3,173.5 -50.3,277.102 0,127.298 31.8,241.198 95.5,341.598 63.6,100.4 149,181.3 256,242.9 72.8,42 159,73.7 258.7,95 99.7,21.3 201,32 303.8,32 15.4,0 29.9,-0.2 43.6,-0.5 13.6,-0.4 26,-0.5 37.2,-0.5 l 4.2,-68.3 c -2.8,0 -13.6,0.2 -32.5,0.6 -18.9,0.3 -33.6,0.5 -44.1,0.5 -109.8,0 -209,-10.3 -297.5,-31 -88.5,-20.6 -167.7,-50.9 -237.7,-90.7 -80.5,-45.5 -151.1,-113.2 -212,-203.1 -60.8,-89.9 -91.3,-196.8 -91.3,-320.6 0,-118.199 26.8,-225.301 80.3,-321.102 53.5,-95.898 123,-167.199 208.3,-214.097 70.7,-38.5 152.9,-67.699 246.6,-87.602 93.8,-20 212.7,-29.898 356.8,-29.898 0,11.101 -0.1,78.5 -0.5,202 -0.3,123.398 -0.9,279.301 -1.6,467.5 h 84"
         style="fill:#100f0d;fill-opacity:1;fill-rule:nonzero;stroke:none"
         id="path32" />
      <path
         d="m 17994.9,214 -61.8,-50.398 c -16.1,19.597 -69.8,86.699 -161,201.199 -91.3,114.402 -213.1,270.398 -365.5,467.801 l 1,9.5 c 39.2,11.898 76.8,27.597 112.9,47.296 36.1,19.602 71.6,46.903 106.6,81.903 25.9,25.898 46.9,56.899 63,92.899 16.1,36.1 24.2,81.1 24.2,135 0,65.1 -15.4,121.4 -46.2,169.1 -30.8,47.6 -72.1,84.7 -123.9,111.3 -38.4,19.6 -83.7,33.2 -135.9,40.9 -52.1,7.7 -106.5,11.6 -163.1,11.6 -27.3,0 -58.1,-0.5 -92.4,-1.6 -34.3,-1 -55.3,-1.6 -62.9,-1.6 -0.8,-130.2 -1.3,-259 -1.6,-386.5 -0.4,-127.4 -0.6,-212.099 -0.6,-254.099 0,-95.899 0.4,-226.199 1.1,-390.699 0.7,-164.5 1.1,-267.801 1.1,-309.801 h -84 c 0,42 0.3,123.398 1,244.097 0.7,120.801 1.1,271.204 1.1,451.102 0,35 -0.4,99.301 -1.1,192.7 -0.7,93.5 -1,265.9 -1,517.3 7,0 39.3,0.6 97.1,2 57.7,1.4 111.4,2.2 161,2.2 56.7,0 113.7,-4.4 171.1,-13.2 57.4,-8.7 108.1,-23.2 152.2,-43.5 61.5,-28.1 112.1,-71.6 151.6,-130.8 39.5,-59.2 59.3,-125.1 59.3,-198 0,-103.6 -27.8,-187.2 -83.5,-250.899 -55.6,-63.699 -122.3,-111.301 -200,-142.801 v -5.301 c 86,-112.699 184.7,-237.898 296.2,-375.5 111.5,-137.597 172.8,-212 184,-223.199"
         style="fill:#100f0d;fill-opacity:1;fill-rule:nonzero;stroke:none"
         id="path34" />
      <path
         d="m 19585.1,900.402 c 0,104.198 -17.5,201.098 -52.4,290.598 -35,89.6 -83.7,165.5 -145.9,227.7 -52.5,52.5 -109.1,90.1 -170,112.9 -60.9,22.7 -123.2,34.1 -186.8,34.1 -68.6,0 -131.7,-11.2 -189.5,-33.6 -57.7,-22.4 -112.1,-58.4 -163.1,-108.1 -64.4,-63 -114.3,-140.3 -149.6,-231.9 -35.3,-91.7 -53,-192.799 -53,-303.299 0,-107.699 16.1,-205.199 48.3,-292.301 32.2,-87.102 80.8,-164.199 145.9,-231.398 46.8,-49 101.4,-86.2 163.7,-111.7 62.2,-25.601 128,-38.3 197.3,-38.3 65,0 128.5,11.898 190.4,35.597 62,23.801 116.4,59.903 163.2,108.102 67.9,70.699 118.4,147.5 151.7,230.402 33.2,82.899 49.8,186.598 49.8,311.199 z m 84,-10.601 c 0,-111.199 -16.3,-212.699 -48.8,-304.301 -32.6,-91.598 -81.7,-172.801 -147.5,-243.398 -60.1,-64.403 -126.1,-112.5 -197.8,-144.301 -71.7,-31.899 -153,-47.801 -244,-47.801 -90.9,0 -174.4,16.602 -250.3,49.902 -75.9,33.2 -144.6,84.797 -206.2,154.7 -61.6,70 -107.5,149.699 -138,239.3 -30.4,89.5 -45.6,187.5 -45.6,293.899 0,117.499 17.1,222.599 51.4,315.299 34.3,92.7 88.5,177.5 162.7,254.5 54.5,56.7 118.6,99.7 192,129.1 73.5,29.3 151.5,44.1 234,44.1 87.5,0 167.4,-15.3 239.8,-45.7 72.4,-30.4 139.8,-79.2 202,-146.4 65.1,-70 114.1,-150.1 146.9,-240.3 32.9,-90.3 49.4,-193.1 49.4,-308.599"
         style="fill:#100f0d;fill-opacity:1;fill-rule:nonzero;stroke:none"
         id="path36" />
      <path
         d="m 21344.7,1593 c 0,-134.4 -0.3,-245.4 -1,-333.2 -0.7,-87.8 -1,-164.3 -1,-229.3 0,-79.801 0.1,-147.801 0.5,-204.199 0.3,-56.301 0.5,-105.102 0.5,-146.399 0,-81.101 -11.4,-152.8 -34.1,-215.101 -22.7,-62.199 -56.8,-116.102 -102.3,-161.602 -46.2,-46.199 -102.5,-82.398 -169,-108.597 -66.4,-26.2 -143.7,-39.403 -231.9,-39.403 -87.4,0 -164.6,13 -231.4,38.903 -66.8,25.898 -123.3,62.199 -169.5,109.097 -45.5,46.199 -79.6,100.203 -102.3,162.102 -22.7,62 -34.1,133.5 -34.1,214.601 0,41.297 0.2,90.098 0.5,146.399 0.4,56.398 0.5,124.398 0.5,204.199 0,65 -0.3,141.5 -1,229.3 -0.7,87.8 -1,198.8 -1,333.2 h 83.9 c 0,-17.5 -0.3,-77.2 -1,-179 -0.7,-101.8 -1.1,-235.6 -1.1,-401.4 0,-50.299 0.2,-102.498 0.5,-156.299 0.4,-53.899 0.6,-109.199 0.6,-165.801 0,-155.301 44.2,-271.699 132.7,-349 88.5,-77.297 196.1,-115.898 322.7,-115.898 132.9,0 242.1,37.898 327.4,113.796 85.4,75.903 128.1,192.903 128.1,351.102 0,56.602 0.1,111.902 0.5,165.801 0.3,53.801 0.5,106 0.5,156.299 0,165.8 -0.3,301.6 -1,407.2 -0.7,105.6 -1.1,163.4 -1.1,173.2 h 83.9"
         style="fill:#100f0d;fill-opacity:1;fill-rule:nonzero;stroke:none"
         id="path38" />
      <path
         d="m 22793.8,1125.4 c 0,80.4 -17.5,150.3 -52.5,209.7 -35,59.4 -86.4,104.8 -154.3,136.2 -45.5,21 -100,36 -163.7,45.1 -63.7,9 -134.3,13.6 -212,13.6 -5.6,0 -16.9,0 -34.1,0 -17.1,0 -28.8,0 -35.1,0 0,-10.5 -0.4,-75.6 -1.1,-195.5 -0.7,-119.8 -1,-208 -1,-264.6 0,-51.7 0.1,-118.099 0.5,-199.099 0.3,-81.102 0.5,-126.5 0.5,-136.301 5.6,0 15.9,0 31,0 15,0 24.7,0 28.9,0 78.3,0 149.8,5.301 214.6,15.699 64.7,10.5 120.4,26.903 167.3,49.301 65.1,31.5 116.5,74.402 154.3,128.902 37.8,54.5 56.7,120.198 56.7,196.998 z m 83.9,-0.5 c 0,-102.1 -32.2,-189.798 -96.5,-262.9 -64.4,-73.098 -148.3,-124.301 -251.9,-153.699 -51.8,-14.699 -107.4,-24.899 -166.9,-30.399 -59.4,-5.601 -133.6,-8.402 -222.4,-8.402 l 2.1,-481.699 h -84 c 0,42 0.4,119.801 1.1,233.5 0.7,113.699 1,289.398 1,527.301 0,75.598 -0.3,168.298 -1,278.098 -0.7,109.9 -1.1,231.9 -1.1,366.3 28.7,0.6 56,1 81.9,1 25.8,0 47.2,0 64,0 113.3,0 209.9,-7.7 289.6,-23.1 79.8,-15.4 146.6,-40.9 200.5,-76.6 59.4,-39.9 104.9,-90.9 136.4,-153.2 31.5,-62.3 47.2,-134.3 47.2,-216.2"
         style="fill:#100f0d;fill-opacity:1;fill-rule:nonzero;stroke:none"
         id="path40" />
    </g>
  </g>
</svg>
